<!DOCTYPE svg PUBLIC "-//W3C//DTD SVG 1.1//EN" "http://www.w3.org/Graphics/SVG/1.1/DTD/svg11.dtd">
<!-- Uploaded to: SVG Repo, www.svgrepo.com, Transformed by: SVG Repo Mixer Tools -->
<svg fill="#000000" height="256px" width="256px" version="1.1" id="Layer_1" xmlns="http://www.w3.org/2000/svg" xmlns:xlink="http://www.w3.org/1999/xlink" viewBox="-51.2 -51.2 614.40 614.40" xml:space="preserve">
<g id="SVGRepo_bgCarrier" stroke-width="0" transform="translate(0,0), scale(1)">
<path transform="translate(-51.2, -51.2), scale(19.2)" d="M16,30.382942126265593C18.864091734898494,29.968698812606576,20.78389247582413,27.507725941825946,23.137051255502442,25.823308313549653C25.512648507707695,24.1228289732451,28.955486964605264,23.281037570491428,29.820038297743277,20.490402645629878C30.6838337446447,17.702207601953162,28.438094591310477,15.018194571484385,27.319828621493155,12.321964722895887C26.30603617465777,9.877629002049744,25.644892890093637,7.217027543753194,23.612174642106076,5.522740447136071C21.49776961824704,3.7603667622963473,18.752283899601274,2.846759225534774,16,2.886796032743794C13.273182295803236,2.9264623893768733,10.8460600086837,4.275040897406194,8.547046261702613,5.741889220499427C6.102238315004678,7.301759161080682,3.1367314551028294,8.775142655087578,2.382307212548927,11.575343396108355C1.6340087743851766,14.35280695422183,4.001429749980936,16.87555976745719,4.803165682667858,19.63807200515774C5.64319134776631,22.532517776148524,5.012296316334108,26.043444891962814,7.18686642924199,28.130237709488874C9.429509564468301,30.282355757596456,12.923784244172957,30.827865657413955,16,30.382942126265593" fill="#8b7eec" strokewidth="0"/>
</g>
<g id="SVGRepo_tracerCarrier" stroke-linecap="round" stroke-linejoin="round" stroke="#7e5858" stroke-width="21.503999999999998"> <g> <g> <path d="M495.605,463.51h-2.295c-1.844-33.883-11-66.629-26.793-95.67c-17.285-31.785-42.043-58.306-71.597-76.812 c-3.549-2.221-8.054-2.19-11.602,0.031c-2.511,1.572-5.861,3.756-9.514,6.583c-10.972,8.495-21.052,18.275-30.063,29.041 c-12.659-14.058-27.021-26.161-42.82-36.055c-3.549-2.222-8.054-2.22-11.602,0.002c-3.253,2.037-7.008,4.747-11.161,8.052 c-10.397,8.274-19.981,17.713-28.583,28.059c-12.459-13.747-26.763-25.722-42.653-35.673c-3.548-2.221-8.053-2.221-11.601,0 c-22.126,13.856-41.563,32.118-57.19,53.825l11.894,118.617h-21.97L102.34,206.911c7.099,3.747,14.781,6.782,22.858,8.934 c17.894,4.767,37.72,5.536,57.418,1.716c35.185-6.821,65.334-27.255,80.627-54.186c-24.248-19.265-59.854-26.959-95.039-20.139 c-6.758,1.31-13.328,3.131-19.645,5.396c-7.497,13.464-16.878,25.717-27.614,35.729c-6.858,6.395-14.265,11.359-22.099,16.824 H51.313L24.963,463.509h-8.568c-6.097,0-11.404,3.459-14.23,8.396C0.795,474.303,0,477.008,0,479.967 c0,9.055,7.341,16.333,16.395,16.333h479.21c9.055,0,16.395-7.341,16.395-16.395S504.659,463.51,495.605,463.51z M81.494,463.51 h-21.86V438.37c0-6.037,4.893-10.93,10.93-10.93s10.93,4.893,10.93,10.93V463.51z"/> </g> </g> <g> <g> <path d="M130.27,15.7c-28.381,12.396-51.867,40.245-62.325,74.525c-8.692,28.488-7.428,58.308,2.787,82.569 c5.911-19.351,13.383-43.459,14.668-47.604c1.788-5.765,7.912-8.992,13.677-7.202c5.766,1.788,8.991,7.911,7.203,13.677 c-4.398,14.186-10.078,32.589-14.538,47.182c-0.074,0.244-0.151,0.494-0.225,0.736c0.363-0.237,0.715-0.497,1.077-0.738 c21.729-14.47,39.179-38.302,47.788-66.522C150.84,78.043,146.898,41.826,130.27,15.7z"/> </g> </g> </g>
<g id="SVGRepo_iconCarrier"> <g> <g> <path d="M495.605,463.51h-2.295c-1.844-33.883-11-66.629-26.793-95.67c-17.285-31.785-42.043-58.306-71.597-76.812 c-3.549-2.221-8.054-2.19-11.602,0.031c-2.511,1.572-5.861,3.756-9.514,6.583c-10.972,8.495-21.052,18.275-30.063,29.041 c-12.659-14.058-27.021-26.161-42.82-36.055c-3.549-2.222-8.054-2.22-11.602,0.002c-3.253,2.037-7.008,4.747-11.161,8.052 c-10.397,8.274-19.981,17.713-28.583,28.059c-12.459-13.747-26.763-25.722-42.653-35.673c-3.548-2.221-8.053-2.221-11.601,0 c-22.126,13.856-41.563,32.118-57.19,53.825l11.894,118.617h-21.97L102.34,206.911c7.099,3.747,14.781,6.782,22.858,8.934 c17.894,4.767,37.72,5.536,57.418,1.716c35.185-6.821,65.334-27.255,80.627-54.186c-24.248-19.265-59.854-26.959-95.039-20.139 c-6.758,1.31-13.328,3.131-19.645,5.396c-7.497,13.464-16.878,25.717-27.614,35.729c-6.858,6.395-14.265,11.359-22.099,16.824 H51.313L24.963,463.509h-8.568c-6.097,0-11.404,3.459-14.23,8.396C0.795,474.303,0,477.008,0,479.967 c0,9.055,7.341,16.333,16.395,16.333h479.21c9.055,0,16.395-7.341,16.395-16.395S504.659,463.51,495.605,463.51z M81.494,463.51 h-21.86V438.37c0-6.037,4.893-10.93,10.93-10.93s10.93,4.893,10.93,10.93V463.51z"/> </g> </g> <g> <g> <path d="M130.27,15.7c-28.381,12.396-51.867,40.245-62.325,74.525c-8.692,28.488-7.428,58.308,2.787,82.569 c5.911-19.351,13.383-43.459,14.668-47.604c1.788-5.765,7.912-8.992,13.677-7.202c5.766,1.788,8.991,7.911,7.203,13.677 c-4.398,14.186-10.078,32.589-14.538,47.182c-0.074,0.244-0.151,0.494-0.225,0.736c0.363-0.237,0.715-0.497,1.077-0.738 c21.729-14.47,39.179-38.302,47.788-66.522C150.84,78.043,146.898,41.826,130.27,15.7z"/> </g> </g> </g>
</svg>