<!DOCTYPE svg PUBLIC "-//W3C//DTD SVG 1.1//EN" "http://www.w3.org/Graphics/SVG/1.1/DTD/svg11.dtd">
<!-- Uploaded to: SVG Repo, www.svgrepo.com, Transformed by: SVG Repo Mixer Tools -->
<svg fill="#000000" width="256px" height="256px" viewBox="-9.6 -9.6 115.20 115.20" data-name="Your Icons" id="Your_Icons" xmlns="http://www.w3.org/2000/svg" stroke="#000000">
<g id="SVGRepo_bgCarrier" stroke-width="0">
<path transform="translate(-9.6, -9.6), scale(3.5999999999999996)" d="M16,31.71522414471422C18.47613831453807,31.699396216599652,20.303417658382813,29.427313733807193,22.2322140900023,27.87449185045941C23.891108071854056,26.53896113558222,25.57162465419548,25.166257698500026,26.509584012595294,23.254242066923087C27.39396832898708,21.451438329085875,26.805023123512314,19.305826248558333,27.379549886341,17.381727515376177C28.095800804292068,14.982992464140386,30.9056235965015,13.006472175362212,30.294395787476958,10.578850749157546C29.705680182302455,8.240641335316415,26.379185419013744,7.920249700124224,24.59028593031732,6.303571641235273C22.77963482846534,4.667236046550579,21.98939803552377,1.838184704553123,19.696796605162227,1.0015065868913098C17.40005527823253,0.1633176262098216,14.732653983704562,0.8502062992197379,12.524731977762283,1.9002833784434117C10.45944882579264,2.8825221052432752,9.300030595223104,5.005575824151894,7.747301417814407,6.684628984673857C6.337635532685901,8.20897978205828,4.849003073019999,9.587063534505043,3.7737610178802363,11.363199166724746C2.5430648811516967,13.396121196169144,1.1247758071148635,15.447190304709085,1.0057569165124516,17.82063073211371C0.8805873928009585,20.316725313000507,1.4644077301002956,23.013576884278066,3.0945417229054524,24.90799466605159C4.704560982740932,26.779036634559716,7.542541906563967,26.802818883561347,9.725828534718579,27.954434949913853C11.91431558607066,29.108794078413496,13.525778822344234,31.73103981813987,16,31.71522414471422" fill="#7ed0ec" strokewidth="0"/>
</g>
<g id="SVGRepo_tracerCarrier" stroke-linecap="round" stroke-linejoin="round" stroke="#CCCCCC" stroke-width="5.76">
<title/>
<path d="M64.29,15.56l-.74-.73a31.61,31.61,0,0,1-2.16-2.44c-1.45-1.89-1.71-5.5-1.73-5.91l-.12-1.81,1.8.49a9.15,9.15,0,0,1,4.91,4A4.37,4.37,0,0,1,67,12.73a4,4,0,0,1-1.84,2.36Zm-2.51-8A9,9,0,0,0,63,11.17c.55.72,1.22,1.44,1.62,1.87a1.81,1.81,0,0,0,.5-.84,2.62,2.62,0,0,0-.53-2A8.15,8.15,0,0,0,61.78,7.52Z"/>
<path d="M67.11,17l-.58-.77a3.87,3.87,0,0,1-.6-3.34c.46-1.46,1.89-2.56,4.23-3.28a19.62,19.62,0,0,1,10-.62l2.51.63L81,11.32c-.16.15-3.94,3.76-7.56,4.62-2.41.58-5.19,1-5.22,1Zm9.5-6.37a20.2,20.2,0,0,0-5.87.89c-1.64.51-2.64,1.18-2.9,2A1.81,1.81,0,0,0,68,14.9c.53-.08,2.9-.42,4.92-.9a16,16,0,0,0,5.61-3.22A16.44,16.44,0,0,0,76.61,10.67Z"/>
<path d="M51.05,53.57l-2.86-4.93-2.85,4.93L38,49.34l4.75-8.21a3.88,3.88,0,0,1,3.35-1.93h4.14a3.88,3.88,0,0,1,3.35,1.93l4.75,8.21Zm-10.3-5,3.86,2.23,3.58-6.2,3.59,6.2,3.85-2.23-3.75-6.48a1.86,1.86,0,0,0-1.62-.93H46.12a1.86,1.86,0,0,0-1.62.93Z"/>
<path d="M48.19,47.64h-.1a1,1,0,0,1-.89-1.09,7.35,7.35,0,0,1,5.23-5.86,1,1,0,0,1,.64,1.9,5.39,5.39,0,0,0-3.88,4.16A1,1,0,0,1,48.19,47.64Z"/>
<path d="M57,54.75,47.41,53,51,51.3l5.5-3.17,3.42-2.29ZM53.58,52.1l2.08.37.62-1.92Z"/>
<path d="M60,70.89h0l-9.5,0,0-8.44h5.7l-2.84-4.94,7.34-4.2,4.72,8.23a3.85,3.85,0,0,1,0,3.87L63.32,69A3.88,3.88,0,0,1,60,70.89Zm-7.51-2,7.5,0h0A1.87,1.87,0,0,0,61.59,68l2.09-3.58a1.89,1.89,0,0,0,0-1.87L60,56l-3.87,2.21,3.57,6.21-7.17,0Z"/>
<path d="M60,70.89l-.2,0A1,1,0,0,1,59,69.69a5.43,5.43,0,0,0-1.66-5.45,1,1,0,1,1,1.18-1.61A7.37,7.37,0,0,1,61,70.08,1,1,0,0,1,60,70.89Z"/>
<path d="M52.73,73.94l-6.27-7,6.31-7.45-.29,4v6.34Zm-3.61-7,1.35,1.5V65.34Z"/>
<path d="M45.51,71l-9.5,0a3.87,3.87,0,0,1-3.34-2L30.61,65.4a3.88,3.88,0,0,1,0-3.87l4.78-8.19,7.31,4.25-2.87,4.92,5.7,0ZM36.13,56.07l-3.78,6.47a1.89,1.89,0,0,0,0,1.87l2,3.59a1.91,1.91,0,0,0,1.62.94l7.5,0,0-4.45-7.17,0L40,58.31Z"/>
<path d="M36,64.87a7.8,7.8,0,0,1-5.21-2.08,1,1,0,0,1-.09-1.41,1,1,0,0,1,1.41-.09,5.46,5.46,0,0,0,5.55,1.3,1,1,0,1,1,.81,1.82A6.33,6.33,0,0,1,36,64.87Z"/>
<path d="M44.06,61l-3.27-2.23L35.3,55.59l-3.69-1.84,9.16-1.93ZM37.5,54.55l2.69,1.57-.71-2Z"/>
<path d="M76.31,31.56H19.52a2.22,2.22,0,0,1-2.21-2.21V26.56a2.22,2.22,0,0,1,2.21-2.21H76.31a2.22,2.22,0,0,1,2.2,2.21v2.79A2.21,2.21,0,0,1,76.31,31.56ZM19.52,26.35a.22.22,0,0,0-.21.21v2.79a.21.21,0,0,0,.21.21H76.31a.2.2,0,0,0,.2-.21V26.56a.21.21,0,0,0-.2-.21Z"/>
<path d="M72.93,26.35H23.1v-3.7a3.5,3.5,0,0,1,3.5-3.5H69.43a3.5,3.5,0,0,1,3.5,3.5Zm-47.83-2H70.93v-1.7a1.5,1.5,0,0,0-1.5-1.5H26.6a1.5,1.5,0,0,0-1.5,1.5Z"/>
<path d="M68.05,21.15H28V18.2A4.25,4.25,0,0,1,32.23,14H63.8a4.25,4.25,0,0,1,4.25,4.25ZM30,19.15H66.05V18.2A2.25,2.25,0,0,0,63.8,16H32.23A2.25,2.25,0,0,0,30,18.2Z"/>
<path d="M70.1,87h-.26a3.35,3.35,0,0,1-3.35-3.34V76.87a3.35,3.35,0,0,1,3.35-3.34h.26a3.35,3.35,0,0,1,3.35,3.34v6.77A3.35,3.35,0,0,1,70.1,87Zm-.26-11.45a1.35,1.35,0,0,0-1.35,1.34v6.77A1.35,1.35,0,0,0,69.84,85h.26a1.34,1.34,0,0,0,1.35-1.34V76.87a1.34,1.34,0,0,0-1.35-1.34Z"/>
<path d="M25.81,87h-.27a3.37,3.37,0,0,1-3.38-3.37V76.9a3.37,3.37,0,0,1,3.38-3.37h.27a3.37,3.37,0,0,1,3.37,3.37v6.71A3.37,3.37,0,0,1,25.81,87Zm-.27-11.45a1.38,1.38,0,0,0-1.38,1.37v6.71A1.37,1.37,0,0,0,25.54,85h.27a1.37,1.37,0,0,0,1.37-1.37V76.9a1.38,1.38,0,0,0-1.37-1.37Z"/>
<path d="M62.5,92H33.13A4.89,4.89,0,0,1,28,87.86L22.6,29.56H73l-5.41,58.3A4.89,4.89,0,0,1,62.5,92ZM24.79,31.56,30,87.68A3,3,0,0,0,33.13,90H62.5a3,3,0,0,0,3.13-2.32l5.21-56.12Z"/>
<path d="M75.13,92H29.58a1,1,0,0,1,0-2H75.13a1,1,0,0,1,0,2Z"/>
<path d="M27,92H22.21a1,1,0,0,1,0-2H27a1,1,0,1,1,0,2Z"/>
<path d="M18.83,92H17.5a1,1,0,0,1,0-2h1.33a1,1,0,0,1,0,2Z"/>
</g>
<g id="SVGRepo_iconCarrier">
<title/>
<path d="M64.29,15.56l-.74-.73a31.61,31.61,0,0,1-2.16-2.44c-1.45-1.89-1.71-5.5-1.73-5.91l-.12-1.81,1.8.49a9.15,9.15,0,0,1,4.91,4A4.37,4.37,0,0,1,67,12.73a4,4,0,0,1-1.84,2.36Zm-2.51-8A9,9,0,0,0,63,11.17c.55.72,1.22,1.44,1.62,1.87a1.81,1.81,0,0,0,.5-.84,2.62,2.62,0,0,0-.53-2A8.15,8.15,0,0,0,61.78,7.52Z"/>
<path d="M67.11,17l-.58-.77a3.87,3.87,0,0,1-.6-3.34c.46-1.46,1.89-2.56,4.23-3.28a19.62,19.62,0,0,1,10-.62l2.51.63L81,11.32c-.16.15-3.94,3.76-7.56,4.62-2.41.58-5.19,1-5.22,1Zm9.5-6.37a20.2,20.2,0,0,0-5.87.89c-1.64.51-2.64,1.18-2.9,2A1.81,1.81,0,0,0,68,14.9c.53-.08,2.9-.42,4.92-.9a16,16,0,0,0,5.61-3.22A16.44,16.44,0,0,0,76.61,10.67Z"/>
<path d="M51.05,53.57l-2.86-4.93-2.85,4.93L38,49.34l4.75-8.21a3.88,3.88,0,0,1,3.35-1.93h4.14a3.88,3.88,0,0,1,3.35,1.93l4.75,8.21Zm-10.3-5,3.86,2.23,3.58-6.2,3.59,6.2,3.85-2.23-3.75-6.48a1.86,1.86,0,0,0-1.62-.93H46.12a1.86,1.86,0,0,0-1.62.93Z"/>
<path d="M48.19,47.64h-.1a1,1,0,0,1-.89-1.09,7.35,7.35,0,0,1,5.23-5.86,1,1,0,0,1,.64,1.9,5.39,5.39,0,0,0-3.88,4.16A1,1,0,0,1,48.19,47.64Z"/>
<path d="M57,54.75,47.41,53,51,51.3l5.5-3.17,3.42-2.29ZM53.58,52.1l2.08.37.62-1.92Z"/>
<path d="M60,70.89h0l-9.5,0,0-8.44h5.7l-2.84-4.94,7.34-4.2,4.72,8.23a3.85,3.85,0,0,1,0,3.87L63.32,69A3.88,3.88,0,0,1,60,70.89Zm-7.51-2,7.5,0h0A1.87,1.87,0,0,0,61.59,68l2.09-3.58a1.89,1.89,0,0,0,0-1.87L60,56l-3.87,2.21,3.57,6.21-7.17,0Z"/>
<path d="M60,70.89l-.2,0A1,1,0,0,1,59,69.69a5.43,5.43,0,0,0-1.66-5.45,1,1,0,1,1,1.18-1.61A7.37,7.37,0,0,1,61,70.08,1,1,0,0,1,60,70.89Z"/>
<path d="M52.73,73.94l-6.27-7,6.31-7.45-.29,4v6.34Zm-3.61-7,1.35,1.5V65.34Z"/>
<path d="M45.51,71l-9.5,0a3.87,3.87,0,0,1-3.34-2L30.61,65.4a3.88,3.88,0,0,1,0-3.87l4.78-8.19,7.31,4.25-2.87,4.92,5.7,0ZM36.13,56.07l-3.78,6.47a1.89,1.89,0,0,0,0,1.87l2,3.59a1.91,1.91,0,0,0,1.62.94l7.5,0,0-4.45-7.17,0L40,58.31Z"/>
<path d="M36,64.87a7.8,7.8,0,0,1-5.21-2.08,1,1,0,0,1-.09-1.41,1,1,0,0,1,1.41-.09,5.46,5.46,0,0,0,5.55,1.3,1,1,0,1,1,.81,1.82A6.33,6.33,0,0,1,36,64.87Z"/>
<path d="M44.06,61l-3.27-2.23L35.3,55.59l-3.69-1.84,9.16-1.93ZM37.5,54.55l2.69,1.57-.71-2Z"/>
<path d="M76.31,31.56H19.52a2.22,2.22,0,0,1-2.21-2.21V26.56a2.22,2.22,0,0,1,2.21-2.21H76.31a2.22,2.22,0,0,1,2.2,2.21v2.79A2.21,2.21,0,0,1,76.31,31.56ZM19.52,26.35a.22.22,0,0,0-.21.21v2.79a.21.21,0,0,0,.21.21H76.31a.2.2,0,0,0,.2-.21V26.56a.21.21,0,0,0-.2-.21Z"/>
<path d="M72.93,26.35H23.1v-3.7a3.5,3.5,0,0,1,3.5-3.5H69.43a3.5,3.5,0,0,1,3.5,3.5Zm-47.83-2H70.93v-1.7a1.5,1.5,0,0,0-1.5-1.5H26.6a1.5,1.5,0,0,0-1.5,1.5Z"/>
<path d="M68.05,21.15H28V18.2A4.25,4.25,0,0,1,32.23,14H63.8a4.25,4.25,0,0,1,4.25,4.25ZM30,19.15H66.05V18.2A2.25,2.25,0,0,0,63.8,16H32.23A2.25,2.25,0,0,0,30,18.2Z"/>
<path d="M70.1,87h-.26a3.35,3.35,0,0,1-3.35-3.34V76.87a3.35,3.35,0,0,1,3.35-3.34h.26a3.35,3.35,0,0,1,3.35,3.34v6.77A3.35,3.35,0,0,1,70.1,87Zm-.26-11.45a1.35,1.35,0,0,0-1.35,1.34v6.77A1.35,1.35,0,0,0,69.84,85h.26a1.34,1.34,0,0,0,1.35-1.34V76.87a1.34,1.34,0,0,0-1.35-1.34Z"/>
<path d="M25.81,87h-.27a3.37,3.37,0,0,1-3.38-3.37V76.9a3.37,3.37,0,0,1,3.38-3.37h.27a3.37,3.37,0,0,1,3.37,3.37v6.71A3.37,3.37,0,0,1,25.81,87Zm-.27-11.45a1.38,1.38,0,0,0-1.38,1.37v6.71A1.37,1.37,0,0,0,25.54,85h.27a1.37,1.37,0,0,0,1.37-1.37V76.9a1.38,1.38,0,0,0-1.37-1.37Z"/>
<path d="M62.5,92H33.13A4.89,4.89,0,0,1,28,87.86L22.6,29.56H73l-5.41,58.3A4.89,4.89,0,0,1,62.5,92ZM24.79,31.56,30,87.68A3,3,0,0,0,33.13,90H62.5a3,3,0,0,0,3.13-2.32l5.21-56.12Z"/>
<path d="M75.13,92H29.58a1,1,0,0,1,0-2H75.13a1,1,0,0,1,0,2Z"/>
<path d="M27,92H22.21a1,1,0,0,1,0-2H27a1,1,0,1,1,0,2Z"/>
<path d="M18.83,92H17.5a1,1,0,0,1,0-2h1.33a1,1,0,0,1,0,2Z"/>
</g>
</svg>