<!DOCTYPE svg PUBLIC "-//W3C//DTD SVG 1.1//EN" "http://www.w3.org/Graphics/SVG/1.1/DTD/svg11.dtd">
<!-- Uploaded to: SVG Repo, www.svgrepo.com, Transformed by: SVG Repo Mixer Tools -->
<svg fill="#000000" width="800px" height="800px" viewBox="-9.6 -9.6 115.20 115.20" data-name="Your Icons" id="Your_Icons" xmlns="http://www.w3.org/2000/svg">
<g id="SVGRepo_bgCarrier" stroke-width="0">
<path transform="translate(-9.6, -9.6), scale(3.5999999999999996)" d="M16,31.75181836541742C18.891692514866776,31.55986158967227,21.302389729061748,29.43635765543089,23.26413883070803,27.30322065409201C24.93722258722607,25.483968200058683,25.457732965332482,23.015940053968432,26.201627578352603,20.658927208744537C26.85632702940136,18.58452716756396,27.217031123356065,16.540043613701318,27.346412153499493,14.368632217606013C27.507263936987027,11.669044841003055,28.683552703542688,8.580412301107259,27.049717880604128,6.425364953247245C25.424589539126362,4.2818015568356,22.179293136673113,4.391504004021253,19.512905025819936,4.036144182135136C17.184391490726703,3.725814207394369,14.897927717876792,3.9128266515031584,12.624120413194504,4.502809971189796C10.285646268648176,5.109572354246522,8.008917480700177,5.911207802149274,6.184176752596484,7.494540739153985C4.1699534129804405,9.24228829965918,2.171591085479795,11.318153214604365,1.7373029444402803,13.949333749584493C1.3004321963224723,16.596161282103253,2.7806450538835947,19.088142445365953,3.8656513907559518,21.54157132886904C4.963496308763735,24.024030960590288,6.011499235549958,26.563001778600423,8.088447678118152,28.31061571023254C10.334433613871006,30.200463446037663,13.071147532261984,31.946241898849753,16,31.75181836541742" fill="#9ad246" strokewidth="0"/>
</g>
<g id="SVGRepo_tracerCarrier" stroke-linecap="round" stroke-linejoin="round" stroke="#CCCCCC" stroke-width="6.719999999999999">
<title/>
<path d="M12.87,34.72l-1-.46a29.61,29.61,0,0,1-3-1.6C6.86,31.39,5.26,28,5,27.32L4.24,25.7,6,25.42a8.7,8.7,0,0,1,6.22,2,4.5,4.5,0,0,1,1.31,6.38ZM7.23,27.41A10.45,10.45,0,0,0,9.94,31c.78.49,1.67,1,2.22,1.22.28-.68.46-1.94-1.15-3.16A7.74,7.74,0,0,0,7.23,27.41Z"/>
<path d="M16.9,34.85,16.21,34c-.92-1.19-1.87-4,1-6.44a8.65,8.65,0,0,1,6.12-2.26l1.77.2-.65,1.65c-.27.68-1.72,4.14-3.68,5.5a28.2,28.2,0,0,1-2.89,1.7Zm5.33-7.52a7.54,7.54,0,0,0-3.71,1.76c-1.55,1.29-1.32,2.54-1,3.21.56-.31,1.41-.79,2.17-1.31A10.52,10.52,0,0,0,22.23,27.33Z"/>
<path d="M13.14,44.54H11.66a1.74,1.74,0,0,1-1.73-1.73V37.7A1.74,1.74,0,0,1,11.66,36h1.48a1.73,1.73,0,0,1,1.73,1.73v5.11A1.73,1.73,0,0,1,13.14,44.54Zm-1.21-2h.94V38h-.94Z"/>
<path d="M18.27,44.54H16.79a1.74,1.74,0,0,1-1.73-1.73V37.7A1.74,1.74,0,0,1,16.79,36h1.48A1.74,1.74,0,0,1,20,37.7v5.11A1.74,1.74,0,0,1,18.27,44.54Zm-1.21-2H18V38h-.94Z"/>
<path d="M51.27,91.63c-22,0-39.87-17.41-39.87-38.81h2c0,20.3,17,36.81,37.87,36.81S89.14,73.12,89.14,52.82,72.15,16,51.27,16h-1V8.73L36.21,17l14.06,8.75V18.86h1c19.23,0,34.87,15.24,34.87,34S70.5,86.77,51.27,86.77,16.4,71.54,16.4,52.82h2c0,17.62,14.75,31.95,32.87,31.95S84.14,70.44,84.14,52.82c0-17.3-14.21-31.43-31.87-31.94v8.45L32.34,16.93,52.27,5.24V14c21.52.52,38.87,17.73,38.87,38.81C91.14,74.22,73.25,91.63,51.27,91.63Z"/>
<path d="M20.77,54.37H8.8V48.49h12Zm-10-2h8V50.49h-8Z"/>
<path d="M22.39,50.49H7.17V45.26a2.72,2.72,0,0,1,2.72-2.72h9.78a2.72,2.72,0,0,1,2.72,2.72Zm-13.22-2H20.39V45.26a.72.72,0,0,0-.72-.72H9.89a.72.72,0,0,0-.72.72Z"/>
</g>
<g id="SVGRepo_iconCarrier">
<title/>
<path d="M12.87,34.72l-1-.46a29.61,29.61,0,0,1-3-1.6C6.86,31.39,5.26,28,5,27.32L4.24,25.7,6,25.42a8.7,8.7,0,0,1,6.22,2,4.5,4.5,0,0,1,1.31,6.38ZM7.23,27.41A10.45,10.45,0,0,0,9.94,31c.78.49,1.67,1,2.22,1.22.28-.68.46-1.94-1.15-3.16A7.74,7.74,0,0,0,7.23,27.41Z"/>
<path d="M16.9,34.85,16.21,34c-.92-1.19-1.87-4,1-6.44a8.65,8.65,0,0,1,6.12-2.26l1.77.2-.65,1.65c-.27.68-1.72,4.14-3.68,5.5a28.2,28.2,0,0,1-2.89,1.7Zm5.33-7.52a7.54,7.54,0,0,0-3.71,1.76c-1.55,1.29-1.32,2.54-1,3.21.56-.31,1.41-.79,2.17-1.31A10.52,10.52,0,0,0,22.23,27.33Z"/>
<path d="M13.14,44.54H11.66a1.74,1.74,0,0,1-1.73-1.73V37.7A1.74,1.74,0,0,1,11.66,36h1.48a1.73,1.73,0,0,1,1.73,1.73v5.11A1.73,1.73,0,0,1,13.14,44.54Zm-1.21-2h.94V38h-.94Z"/>
<path d="M18.27,44.54H16.79a1.74,1.74,0,0,1-1.73-1.73V37.7A1.74,1.74,0,0,1,16.79,36h1.48A1.74,1.74,0,0,1,20,37.7v5.11A1.74,1.74,0,0,1,18.27,44.54Zm-1.21-2H18V38h-.94Z"/>
<path d="M51.27,91.63c-22,0-39.87-17.41-39.87-38.81h2c0,20.3,17,36.81,37.87,36.81S89.14,73.12,89.14,52.82,72.15,16,51.27,16h-1V8.73L36.21,17l14.06,8.75V18.86h1c19.23,0,34.87,15.24,34.87,34S70.5,86.77,51.27,86.77,16.4,71.54,16.4,52.82h2c0,17.62,14.75,31.95,32.87,31.95S84.14,70.44,84.14,52.82c0-17.3-14.21-31.43-31.87-31.94v8.45L32.34,16.93,52.27,5.24V14c21.52.52,38.87,17.73,38.87,38.81C91.14,74.22,73.25,91.63,51.27,91.63Z"/>
<path d="M20.77,54.37H8.8V48.49h12Zm-10-2h8V50.49h-8Z"/>
<path d="M22.39,50.49H7.17V45.26a2.72,2.72,0,0,1,2.72-2.72h9.78a2.72,2.72,0,0,1,2.72,2.72Zm-13.22-2H20.39V45.26a.72.72,0,0,0-.72-.72H9.89a.72.72,0,0,0-.72.72Z"/>
</g>
</svg>