<!DOCTYPE svg PUBLIC "-//W3C//DTD SVG 1.1//EN" "http://www.w3.org/Graphics/SVG/1.1/DTD/svg11.dtd">
<!-- Uploaded to: SVG Repo, www.svgrepo.com, Transformed by: SVG Repo Mixer Tools -->
<svg fill="#000000" width="256px" height="256px" viewBox="-9.6 -9.6 115.20 115.20" data-name="Your Icons" id="Your_Icons" xmlns="http://www.w3.org/2000/svg">
<g id="SVGRepo_bgCarrier" stroke-width="0">
<path transform="translate(-9.6, -9.6), scale(3.5999999999999996)" d="M16,28.248659854133926C19.85766224384082,28.60835675485582,24.31354939030022,29.790885092210768,27.124108312439557,27.12410831243956C29.95618429412486,24.43691523955522,28.987492508104722,19.903269046189592,28.909059542748665,16C28.8330751889193,12.218587746230492,29.37376501656089,7.974970436692383,26.685855123548652,5.3141448764513495C24.004286681129855,2.659596868099944,19.683813631630045,2.404345688956045,16,3.2210167166259556C12.936469883774798,3.9001760168776047,11.587101520308874,7.164638123891192,9.19231753825426,9.192317538254258C6.3565179848323154,11.593407749656265,1.4617050630332336,12.325797166085318,0.907424587342474,15.999999999999996C0.3422706294279074,19.74628074564598,3.831653138544549,22.839110338514153,6.773433322561051,25.226566677438946C9.385739009985347,27.346631870119378,12.650185288614397,27.93631577279249,16,28.248659854133926" fill="#9879d2" strokewidth="0"/>
</g>
<g id="SVGRepo_tracerCarrier" stroke-linecap="round" stroke-linejoin="round" stroke="#CCCCCC" stroke-width="4.032">
<title/>
<path d="M40.73,51.14l-2.2-3.89-2.2,3.89-6.18-3.65L34,40.63a3.3,3.3,0,0,1,2.86-1.69h3.3A3.27,3.27,0,0,1,43,40.63l3.87,6.86Zm-7.87-4.38,2.73,1.62,2.94-5.2,2.93,5.2,2.74-1.62-2.91-5.15a1.28,1.28,0,0,0-1.11-.67h-3.3a1.28,1.28,0,0,0-1.11.67Z"/>
<path d="M38.53,46.21h-.1a1,1,0,0,1-.9-1.1,6.24,6.24,0,0,1,4.3-4.94,1,1,0,0,1,1.28.62,1,1,0,0,1-.62,1.27,4.25,4.25,0,0,0-3,3.25A1,1,0,0,1,38.53,46.21Z"/>
<path d="M45.72,52.05l-8.4-1.53,3.33-1.66L45,46.28l3.21-2.19Zm-2.37-2.46,1,.18.29-.94Z"/>
<path d="M47.93,65.21h0l-7.78,0,0-7.27,4.42,0L42.38,54l6.19-3.64,3.87,6.91a3.4,3.4,0,0,1,0,3.33l-1.66,2.92A3.3,3.3,0,0,1,47.93,65.21Zm-5.78-2h5.77A1.29,1.29,0,0,0,49,62.55l1.66-2.92a1.43,1.43,0,0,0,0-1.36l-2.88-5.13-2.74,1.61L48,59.94H42.15Z"/>
<path d="M47.92,65.21a.62.62,0,0,1-.19,0A1,1,0,0,1,46.94,64a4.3,4.3,0,0,0-1.25-4.28,1,1,0,1,1,1.19-1.6,6.25,6.25,0,0,1,2,6.26A1,1,0,0,1,47.92,65.21Z"/>
<path d="M42.39,68.09l-5.5-6.24,5.54-6.69L42.15,59v5.16Zm-2.87-6.28.63.71V61.05Z"/>
<path d="M36.59,65.29l-7.78,0A3.27,3.27,0,0,1,26,63.56l-1.64-2.93a3.4,3.4,0,0,1,0-3.33l3.92-6.88,6.17,3.68L32.2,58l4.42,0ZM29,53.19l-2.91,5.1a1.4,1.4,0,0,0,0,1.36l1.64,2.94a1.28,1.28,0,0,0,1.11.66l5.78,0,0-3.27-5.85,0,2.95-5.18Z"/>
<path d="M28.83,60.29a6.29,6.29,0,0,1-4.29-1.75,1,1,0,0,1,1.34-1.49,4,4,0,0,0,4.2,1,1,1,0,0,1,1.32.5,1,1,0,0,1-.5,1.32A5.36,5.36,0,0,1,28.83,60.29Z"/>
<path d="M35.62,57.46,32.5,55.28l-4.36-2.6L24.76,51l8-1.73Zm-5.12-5.7,1.28.76-.34-1Z"/>
<path d="M20.27,87.34a6,6,0,1,1,6.07-6A6,6,0,0,1,20.27,87.34Zm0-10a4,4,0,1,0,4.07,4A4,4,0,0,0,20.27,77.34Z"/>
<path d="M73.47,86.79a6,6,0,1,1,6.07-6A6,6,0,0,1,73.47,86.79Zm0-10a4,4,0,1,0,4.07,4A4,4,0,0,0,73.47,76.79Z"/>
<path d="M59.35,73H30.2l-.3-.36a14,14,0,0,0-9.63-4.5,13.58,13.58,0,0,0-9.45,4.5l-.3.36H3.67L9.43,35H59.35ZM31.12,71H57.35V37H11.15L6,71H9.59a15.65,15.65,0,0,1,10.68-4.86A16.08,16.08,0,0,1,31.12,71Z"/>
<path d="M92,73H83.11l-.3-.36c-1.92-2.31-6-4.71-9.54-4.71s-7.62,2.4-9.53,4.71l-.3.36h-4V71h3.1C64.8,68.52,69.2,66,73.27,66S81.75,68.52,84,71h6V61.56a3.48,3.48,0,0,0-3.28-3.65H77.34L74.15,47.69a1.49,1.49,0,0,0-1.36-1.22H59.41v-2H72.79a3.43,3.43,0,0,1,3.29,2.69l2.73,8.75h7.91A5.48,5.48,0,0,1,92,61.56Z"/>
<path d="M20.27,92.34a11,11,0,1,1,11-11A11,11,0,0,1,20.27,92.34Zm0-20a9,9,0,1,0,9,9A9,9,0,0,0,20.27,72.34Z"/>
<path d="M73.47,91.79a11,11,0,1,1,11-11A11,11,0,0,1,73.47,91.79Zm0-20a9,9,0,1,0,9,9A9,9,0,0,0,73.47,71.79Z"/>
<path d="M12,63.18h-.16A1,1,0,0,1,11.05,62l3-19.17a1,1,0,1,1,2,.31L13,62.33A1,1,0,0,1,12,63.18Z"/>
<path d="M17.54,63.18h-.15A1,1,0,0,1,16.55,62l3-19.17a1,1,0,1,1,2,.31l-3,19.17A1,1,0,0,1,17.54,63.18Z"/>
<path d="M62.49,58.06H61.1a1,1,0,1,1,0-2h1.39a1,1,0,1,1,0,2Z"/>
<path d="M74.94,58H65a1,1,0,1,1,0-2h7l-2.9-7.34A1,1,0,0,1,71,47.92Z"/>
<path d="M85,92.34H50.5a1,1,0,0,1,0-2H85a1,1,0,0,1,0,2Z"/>
<path d="M46.63,92.34H43.14a1,1,0,0,1,0-2h3.49a1,1,0,0,1,0,2Z"/>
<path d="M37.94,92.34H8a1,1,0,1,1,0-2h30a1,1,0,0,1,0,2Z"/>
<path d="M5.63,92.34H5.27a1,1,0,1,1,0-2h.36a1,1,0,0,1,0,2Z"/>
</g>
<g id="SVGRepo_iconCarrier">
<title/>
<path d="M40.73,51.14l-2.2-3.89-2.2,3.89-6.18-3.65L34,40.63a3.3,3.3,0,0,1,2.86-1.69h3.3A3.27,3.27,0,0,1,43,40.63l3.87,6.86Zm-7.87-4.38,2.73,1.62,2.94-5.2,2.93,5.2,2.74-1.62-2.91-5.15a1.28,1.28,0,0,0-1.11-.67h-3.3a1.28,1.28,0,0,0-1.11.67Z"/>
<path d="M38.53,46.21h-.1a1,1,0,0,1-.9-1.1,6.24,6.24,0,0,1,4.3-4.94,1,1,0,0,1,1.28.62,1,1,0,0,1-.62,1.27,4.25,4.25,0,0,0-3,3.25A1,1,0,0,1,38.53,46.21Z"/>
<path d="M45.72,52.05l-8.4-1.53,3.33-1.66L45,46.28l3.21-2.19Zm-2.37-2.46,1,.18.29-.94Z"/>
<path d="M47.93,65.21h0l-7.78,0,0-7.27,4.42,0L42.38,54l6.19-3.64,3.87,6.91a3.4,3.4,0,0,1,0,3.33l-1.66,2.92A3.3,3.3,0,0,1,47.93,65.21Zm-5.78-2h5.77A1.29,1.29,0,0,0,49,62.55l1.66-2.92a1.43,1.43,0,0,0,0-1.36l-2.88-5.13-2.74,1.61L48,59.94H42.15Z"/>
<path d="M47.92,65.21a.62.62,0,0,1-.19,0A1,1,0,0,1,46.94,64a4.3,4.3,0,0,0-1.25-4.28,1,1,0,1,1,1.19-1.6,6.25,6.25,0,0,1,2,6.26A1,1,0,0,1,47.92,65.21Z"/>
<path d="M42.39,68.09l-5.5-6.24,5.54-6.69L42.15,59v5.16Zm-2.87-6.28.63.71V61.05Z"/>
<path d="M36.59,65.29l-7.78,0A3.27,3.27,0,0,1,26,63.56l-1.64-2.93a3.4,3.4,0,0,1,0-3.33l3.92-6.88,6.17,3.68L32.2,58l4.42,0ZM29,53.19l-2.91,5.1a1.4,1.4,0,0,0,0,1.36l1.64,2.94a1.28,1.28,0,0,0,1.11.66l5.78,0,0-3.27-5.85,0,2.95-5.18Z"/>
<path d="M28.83,60.29a6.29,6.29,0,0,1-4.29-1.75,1,1,0,0,1,1.34-1.49,4,4,0,0,0,4.2,1,1,1,0,0,1,1.32.5,1,1,0,0,1-.5,1.32A5.36,5.36,0,0,1,28.83,60.29Z"/>
<path d="M35.62,57.46,32.5,55.28l-4.36-2.6L24.76,51l8-1.73Zm-5.12-5.7,1.28.76-.34-1Z"/>
<path d="M20.27,87.34a6,6,0,1,1,6.07-6A6,6,0,0,1,20.27,87.34Zm0-10a4,4,0,1,0,4.07,4A4,4,0,0,0,20.27,77.34Z"/>
<path d="M73.47,86.79a6,6,0,1,1,6.07-6A6,6,0,0,1,73.47,86.79Zm0-10a4,4,0,1,0,4.07,4A4,4,0,0,0,73.47,76.79Z"/>
<path d="M59.35,73H30.2l-.3-.36a14,14,0,0,0-9.63-4.5,13.58,13.58,0,0,0-9.45,4.5l-.3.36H3.67L9.43,35H59.35ZM31.12,71H57.35V37H11.15L6,71H9.59a15.65,15.65,0,0,1,10.68-4.86A16.08,16.08,0,0,1,31.12,71Z"/>
<path d="M92,73H83.11l-.3-.36c-1.92-2.31-6-4.71-9.54-4.71s-7.62,2.4-9.53,4.71l-.3.36h-4V71h3.1C64.8,68.52,69.2,66,73.27,66S81.75,68.52,84,71h6V61.56a3.48,3.48,0,0,0-3.28-3.65H77.34L74.15,47.69a1.49,1.49,0,0,0-1.36-1.22H59.41v-2H72.79a3.43,3.43,0,0,1,3.29,2.69l2.73,8.75h7.91A5.48,5.48,0,0,1,92,61.56Z"/>
<path d="M20.27,92.34a11,11,0,1,1,11-11A11,11,0,0,1,20.27,92.34Zm0-20a9,9,0,1,0,9,9A9,9,0,0,0,20.27,72.34Z"/>
<path d="M73.47,91.79a11,11,0,1,1,11-11A11,11,0,0,1,73.47,91.79Zm0-20a9,9,0,1,0,9,9A9,9,0,0,0,73.47,71.79Z"/>
<path d="M12,63.18h-.16A1,1,0,0,1,11.05,62l3-19.17a1,1,0,1,1,2,.31L13,62.33A1,1,0,0,1,12,63.18Z"/>
<path d="M17.54,63.18h-.15A1,1,0,0,1,16.55,62l3-19.17a1,1,0,1,1,2,.31l-3,19.17A1,1,0,0,1,17.54,63.18Z"/>
<path d="M62.49,58.06H61.1a1,1,0,1,1,0-2h1.39a1,1,0,1,1,0,2Z"/>
<path d="M74.94,58H65a1,1,0,1,1,0-2h7l-2.9-7.34A1,1,0,0,1,71,47.92Z"/>
<path d="M85,92.34H50.5a1,1,0,0,1,0-2H85a1,1,0,0,1,0,2Z"/>
<path d="M46.63,92.34H43.14a1,1,0,0,1,0-2h3.49a1,1,0,0,1,0,2Z"/>
<path d="M37.94,92.34H8a1,1,0,1,1,0-2h30a1,1,0,0,1,0,2Z"/>
<path d="M5.63,92.34H5.27a1,1,0,1,1,0-2h.36a1,1,0,0,1,0,2Z"/>
</g>
</svg>