<!DOCTYPE svg PUBLIC "-//W3C//DTD SVG 1.1//EN" "http://www.w3.org/Graphics/SVG/1.1/DTD/svg11.dtd">
<!-- Uploaded to: SVG Repo, www.svgrepo.com, Transformed by: SVG Repo Mixer Tools -->
<svg fill="#1c1d1b" width="256px" height="256px" viewBox="-51.2 -51.2 614.40 614.40" xmlns="http://www.w3.org/2000/svg" stroke="#1c1d1b" stroke-width="0.00512" transform="matrix(1, 0, 0, 1, 0, 0)rotate(0)">
<g id="SVGRepo_bgCarrier" stroke-width="0">
<path transform="translate(-51.2, -51.2), scale(19.2)" d="M16,31.760864191999037C18.5797723926405,31.619063925707156,19.349575105312912,27.902194639510476,21.478238783448894,26.43791192816846C23.28366284530426,25.195981947604004,26.273409972867857,25.751229458956722,27.436343525588086,23.893937970872884C28.611016072134387,22.01789843543859,27.21749520107412,19.56851274247907,27.16503161251346,17.35568028113062C27.12026409076649,15.467455932518344,27.89010069972143,13.509025948592585,27.148941408203974,11.771764245137124C26.41287900238761,10.046449533963528,24.238890413752948,9.458486534166553,23.145619396595766,7.934263059444978C21.66248676877095,5.866499868087031,21.973643580835034,2.268881564003973,19.626982749951782,1.2847525317873263C17.418799356472306,0.35869736549221065,15.295542776322648,3.1385090340023196,12.959021879438996,3.662266772547934C10.558744672158882,4.200316213340166,7.710202247326702,2.949563175097263,5.724347742151828,4.401186320683578C3.7561198360296126,5.839924746318794,3.6847214836780005,8.72302398690941,2.885049579798183,11.026155375689209C2.1055318120637563,13.271240929239607,0.6375190796933425,15.475795460328817,1.067579174047566,17.81312415099652C1.495574769076844,20.13923251788295,3.5132213870925897,21.78897753470244,5.175028940722621,23.471938026978385C6.641473824324439,24.957049102452235,8.539197856281357,25.789161143755063,10.196294227065376,27.058037465967544C12.202398298846552,28.594156910470844,13.477127356397148,31.899536895724356,16,31.760864191999037" fill="#7eecb9" strokewidth="0"/>
</g>
<g id="SVGRepo_tracerCarrier" stroke-linecap="round" stroke-linejoin="round"/>
<g id="SVGRepo_iconCarrier"> <g id="Sustainable_recycling"> <path d="M219.1,91.73A8.27,8.27,0,0,0,234,95.34l17.37-23.8A8.27,8.27,0,0,0,249.53,60L225.77,42.57a8.27,8.27,0,0,0-13.06,7.94l2,12.79A201.72,201.72,0,0,0,68.16,334.66l10,22.84H97.86l-13-29.61A183.65,183.65,0,0,1,217.46,81.12Z"/> <path d="M454.27,335.67,442.85,331a200.78,200.78,0,0,0,13.37-72.31c0-96.13-68.37-179.31-162.57-197.79l-3.46,17.67c85.77,16.82,148,92.57,148,180.12a182.84,182.84,0,0,1-12,65.47l-10.51-4.31a8.26,8.26,0,0,0-10.76,10.84l11.39,27.18a8.27,8.27,0,0,0,10.81,4.43L454.31,351A8.27,8.27,0,0,0,454.27,335.67Z"/> <path d="M343.94,266h-4.78v-15.8a37.7,37.7,0,0,0-14.68-30L296,198.11a3.59,3.59,0,0,1-1.4-2.86v-9.12h11a6.37,6.37,0,0,0,6.37-6.37V141.61a6.37,6.37,0,0,0-6.37-6.37H207.14a6.38,6.38,0,0,0-6.38,6.37v38.15a6.38,6.38,0,0,0,6.38,6.37h11v9.12a3.66,3.66,0,0,1-1.4,2.86l-28.52,22.14a37.7,37.7,0,0,0-14.68,30V266h-4.78a9.43,9.43,0,0,0-9.43,9.43V308a9.43,9.43,0,0,0,2.52,6.42,4.42,4.42,0,0,1,0,6,9.41,9.41,0,0,0-2.52,6.42v29.7a9.29,9.29,0,0,0,9.29,9.3h2.5v61.73A20.8,20.8,0,0,0,191.9,448.4H320.8a20.8,20.8,0,0,0,20.78-20.77V365.9h2.49a9.3,9.3,0,0,0,9.3-9.3V326.9a9.41,9.41,0,0,0-2.52-6.42,4.42,4.42,0,0,1,0-6,9.43,9.43,0,0,0,2.52-6.42V275.46A9.43,9.43,0,0,0,343.94,266ZM188.46,324V308H324.25v16Zm3.09-73.73a19.81,19.81,0,0,1,7.71-15.76l28.52-22.14a21.48,21.48,0,0,0,8.37-17.08v-9.12h40.41v9.12a21.5,21.5,0,0,0,8.36,17.08l28.52,22.14a19.79,19.79,0,0,1,7.72,15.76V266H191.55Zm132,177.4a2.78,2.78,0,0,1-2.78,2.77H191.9a2.78,2.78,0,0,1-2.77-2.77V365.9H323.58Z"/> </g> </g>
</svg>