<!DOCTYPE svg PUBLIC "-//W3C//DTD SVG 1.1//EN" "http://www.w3.org/Graphics/SVG/1.1/DTD/svg11.dtd">
<!-- Uploaded to: SVG Repo, www.svgrepo.com, Transformed by: SVG Repo Mixer Tools -->
<svg fill="#000000" height="248px" width="248px" version="1.1" id="Layer_1" xmlns="http://www.w3.org/2000/svg" xmlns:xlink="http://www.w3.org/1999/xlink" viewBox="-138.24 -138.24 788.48 788.48" xml:space="preserve" stroke="#000000" stroke-width="0.00512" transform="matrix(1, 0, 0, 1, 0, 0)rotate(0)">
<g id="SVGRepo_bgCarrier" stroke-width="0" transform="translate(0,0), scale(1)">
<path transform="translate(-138.24, -138.24), scale(24.64)" d="M16,28.05423614755273C17.764701381585205,27.978127134299807,19.175619895856144,26.66445886527852,20.781795047568075,25.929499730298737C22.417967885431228,25.180814151200078,24.35988608668126,24.95876134635366,25.604534206676195,23.659360442435037C26.86925158749865,22.339007419406343,26.99962255243077,20.353689356462272,27.72869780754038,18.67699873766515C28.605026483182698,16.661662105219072,30.940435990853423,14.842017895051228,30.360268198755797,12.722362493141597C29.770317499146092,10.56696502999242,26.283978389518794,10.648984126440453,25.025858578959664,8.80211797146372C23.620865414806403,6.739648005511002,25.002544452902118,3.0295646212423835,22.872067825301517,1.730004122065079C20.840859902887576,0.49099612386045544,18.366676385743364,3.0519538014345438,16,3.296472366899252C13.910014772904336,3.512403954610324,11.772590719305802,2.4181061692365016,9.779359603324973,3.0827071159220765C7.733875880487049,3.7647305941473155,5.759562465176771,5.127803927977275,4.766910049870594,7.041909689849424C3.783278432414071,8.938620882510374,4.54724784068391,11.229015753430335,4.447859681892208,13.363299357152544C4.364180296783323,15.160249233060284,4.114681894956864,16.892122804578236,4.2245971323006675,18.68765886286743C4.349238081790667,20.72374889512278,3.7865416160409624,23.13429241521236,5.139457461487833,24.6609936632888C6.508278691494562,26.205643382100053,9.045389593109116,25.73521903250215,11.015359849236248,26.35071192727448C12.71263719068788,26.881005286208392,14.22346098708429,28.130855700690315,16,28.05423614755273" fill="#46ec70" strokewidth="0"/>
</g>
<g id="SVGRepo_tracerCarrier" stroke-linecap="round" stroke-linejoin="round"/>
<g id="SVGRepo_iconCarrier"> <g> <g> <path d="M444.566,82.717c-15.828-17.24-34.291-32.574-55.249-45.353C335.64,4.633,274.565-5.918,216.831,3.069 c-49.543,7.712-96.626,29.809-134.458,64.678c-17.097,15.756-32.306,34.114-44.998,54.929 c-5.175,8.485-9.776,17.161-13.852,25.975c-53.844,116.391-12.903,257.631,99.163,325.968c2.734,1.668,5.489,3.274,8.26,4.827 c36.27,20.322,75.583,30.847,114.763,32.357c3.292,0.126,6.582,0.197,9.87,0.197c41.373,0,82.283-10.036,118.99-29.142 c39.963-20.802,74.941-52.36,100.057-93.549c15.424-25.294,25.908-52.235,31.763-79.692 C523.586,228.963,500.684,143.837,444.566,82.717z M146.742,366.51l14.737,86.124c-6.477-3.126-12.836-6.589-19.057-10.382 c-49.752-30.339-84.713-78.235-98.44-134.868c-11.733-48.405-6.74-98.233,13.896-142.757l67.258,38.492 c18.472,10.572,27.747,32.371,22.552,53.011c-1.879,7.467,0.158,15.265,5.449,20.859l1.921,2.031 c16.979,17.954,17.303,46.382,0.735,64.718l-3.593,3.975C147.566,352.843,145.576,359.693,146.742,366.51z M213.342,82.814 l-80.454,45.28c-1.907,1.073-4.044,1.624-6.198,1.624c-1.032,0-2.067-0.126-3.083-0.382l-38.039-9.572 c30.016-37.712,71.441-64.255,119.041-75.792c7.861-1.906,15.759-3.349,23.665-4.377c-0.009,0.035-0.011,0.071-0.02,0.105 l-8.854,35.186C218.553,78.248,216.363,81.115,213.342,82.814z M307.393,468.01c-24.655,5.977-49.68,7.613-74.186,5.057 l-5.295-32.311c-0.93-5.676,2.09-11.264,7.348-13.596l16.549-7.337c25.441-11.277,55.156-2.694,70.665,20.409l9.758,14.537 l8.26,2.39C329.859,461.599,318.808,465.244,307.393,468.01z M464.308,321.084c-1.044-0.543-2.022-1.237-2.898-2.076 l-12.154-11.632c-8.198-7.847-18.976-11.977-30.306-11.608c-11.344,0.363-21.822,5.163-29.503,13.518 c-9.99,10.869-23.506,18.232-38.056,20.735l-43.211,7.435c-2.588,0.446-5.186,0.665-7.766,0.665 c-10.697,0-21.105-3.766-29.412-10.802c-10.311-8.734-16.185-21.493-16.115-35.005l0.201-38.902 c0.048-9.102-2.939-18.121-8.409-25.395l-22.437-29.838c-3.131-4.164-3.385-9.822-0.641-14.25l35.448-57.201 c2.211-3.57,6.054-5.808,10.251-5.971l84.007-3.26l32.661-35.694c0.193-0.211,0.406-0.397,0.61-0.593 c40.713,30.305,69.338,73.444,81.443,123.385C477.492,243.678,476.067,283.688,464.308,321.084z"/> </g> </g> </g>
</svg>